<?xml version="1.0" encoding="UTF-8"?>
<svg width="14px" height="14px" viewBox="0 0 14 14" version="1.1" xmlns="http://www.w3.org/2000/svg" xmlns:xlink="http://www.w3.org/1999/xlink">
    <title>1BA3427D-BA8C-4E62-9292-804D361E60D2@1.00x</title>
    <g id="Stylesheet" stroke="none" stroke-width="1" fill="none" fill-rule="evenodd" stroke-linecap="round">
        <g id="BXFinance/Style-Sheet" transform="translate(-796.000000, -1349.000000)" stroke="#FFFFFF">
            <g id="Icon/User\" transform="translate(797.000000, 1349.500000)">
                <g id="Group">
                    <path d="M11,13 C11,13 12,13 12,12 C12,11 11,8 6,8 C1,8 0,11 0,12 C0,13 1,13 1,13 L11,13 Z" id="Icon-Path"></path>
                    <path d="M9,3 C9,4.65685425 7.65685425,6 6,6 C4.34314575,6 3,4.65685425 3,3 C3,1.34314575 4.34314575,0 6,0 C7.65685425,0 9,1.34314575 9,3 Z" id="Icon-Path"></path>
                </g>
            </g>
        </g>
    </g>
</svg>